<svg id="Capa_1" enable-background="new 0 0 512 512" viewBox="0 0 512 512" xmlns="http://www.w3.org/2000/svg"><g><g><g><path d="m194.576 231.701-36.153-54.336-1.266.099-12.787 19.217c-.754 1.134-1.968 1.784-3.329 1.784-1.362 0-2.576-.65-3.33-1.784l-5.81-8.729c-1.114-1.676-2.981-2.676-4.994-2.676-2.014 0-3.881 1-4.996 2.676l-13.541 20.352c-.754 1.134-1.968 1.784-3.329 1.784-1.362 0-2.576-.65-3.33-1.784l-16.72-25.127.066-.099-1.267.099-68.04 102.257h143.074l2.057-1.287 33.747-50.719z" fill="#02905d"/><g><g><path d="m36 255-20.25 30.434h143.074l2.057-1.287 19.394-29.147z" fill="#017b4e"/></g></g><path d="m507 285.434h-10.75l-5.899-1h-224.641l-4.114 1-58.886 58.886c-3.149 3.149-7.419 4.918-11.872 4.918h-72.282c-4.453 0-8.724 1.769-11.872 4.918l-43.215 43.215h-58.469c-2.761 0-5 2.239-5 5v58.281c0 2.761 2.239 5 5 5h85.095c4.453 0 8.724-1.769 11.873-4.918l38.297-38.297c3.149-3.149 7.42-4.918 11.873-4.918h72.282c4.453 0 8.724-1.769 11.873-4.918l76.26-76.26c3.149-3.149 7.419-4.918 11.873-4.918h182.574c2.761 0 5-2.239 5-5v-35.99c0-2.76-2.239-4.999-5-4.999z" fill="#97d729"/><g><path d="m314.424 304.99c-4.453 0-8.724 1.769-11.873 4.918l-76.26 76.26c-3.149 3.149-7.42 4.918-11.873 4.918h-72.282c-4.453 0-8.724 1.769-11.873 4.918l-38.297 38.297c-3.149 3.149-7.42 4.918-11.873 4.918h-80.093v21.434c0 2.761 2.239 5 5 5h85.095c4.453 0 8.724-1.769 11.873-4.918l38.297-38.297c3.149-3.149 7.419-4.918 11.872-4.918h72.282c4.453 0 8.724-1.769 11.873-4.918l76.26-76.26c3.149-3.149 7.419-4.918 11.873-4.918h182.575c2.761 0 5-2.239 5-5v-21.434z" fill="#8bc727"/></g><g><g><path d="m291.834 271.967 47.399-71.238-37.163-55.854c-1.979-2.974-6.347-2.974-8.325 0l-43.237 64.982z" fill="#02905d"/></g><g><path d="m127.202 130.442c-1.979-2.974-6.347-2.974-8.326 0l-35.087 52.734 17.087 25.681c1.979 2.974 6.347 2.974 8.325 0l13.541-20.352c1.979-2.974 6.347-2.974 8.326 0l5.808 8.729c1.979 2.974 6.347 2.974 8.325 0l13.221-19.87z" fill="#dff6fd"/></g><g><path d="m226.247 184.102-67.423 101.332h143.171l-67.423-101.332c-1.978-2.974-6.347-2.974-8.325 0z" fill="#22b27f"/></g><g><path d="m179.073 255-20.249 30.434h143.171l-20.25-30.434z" fill="#09a76d"/></g><path d="m426.182 180.125-1.3.149-16.841 25.311c-.754 1.134-1.968 1.784-3.329 1.784-1.362 0-2.576-.65-3.33-1.784l-5.809-8.729c-1.115-1.676-2.982-2.676-4.995-2.676-2.014 0-3.881 1-4.996 2.676l-13.541 20.351c-.754 1.134-1.968 1.784-3.33 1.784-1.361 0-2.575-.65-3.329-1.784l-18.558-27.889.099-.149-1.3.148-63.952 96.115h214.579z" fill="#22b27f"/><g><path d="m426.182 180.126-16 24.047 23.479 35.288c4.422 6.646-.343 15.54-8.326 15.54h-123.414l-20.25 30.434h214.579z" fill="#09a76d"/></g></g><g><circle cx="211.606" cy="83.848" fill="#fedf30" r="37.5"/></g><g><path d="m217.915 46.886c6.844 6.794 11.085 16.208 11.085 26.614 0 20.711-16.789 37.5-37.5 37.5-2.151 0-4.256-.191-6.308-.539 6.778 6.728 16.11 10.886 26.415 10.886 20.711 0 37.5-16.789 37.5-37.5-.001-18.559-13.487-33.96-31.192-36.961z" fill="#fed402"/></g><g><path d="m47.32 309.968h30v155.684h-30z" fill="#dd7f66"/><g><g><path d="m47.32 439.218h30v26.434h-30z" fill="#d6694b"/></g></g></g><g><path d="m393.124 130.442c-1.979-2.974-6.347-2.974-8.325 0l-39.175 58.877 18.925 28.443c1.979 2.974 6.347 2.974 8.325 0l13.541-20.352c1.979-2.974 6.347-2.974 8.325 0l5.808 8.729c1.979 2.974 6.347 2.974 8.325 0l17.308-26.013z" fill="#dff6fd"/></g><g><path d="m410.182 204.173 16-24.047-33.058-49.684c-1.979-2.974-6.347-2.974-8.325 0l-11.837 17.791z" fill="#c8effe"/></g></g></g><g><g><path d="m444.974 411.5h-82c-4.143 0-7.5-3.358-7.5-7.5s3.357-7.5 7.5-7.5h82c4.143 0 7.5 3.358 7.5 7.5s-3.358 7.5-7.5 7.5z" fill="#8bc727"/></g><g><path d="m330.974 458.5h-42c-4.143 0-7.5-3.358-7.5-7.5s3.357-7.5 7.5-7.5h42c4.143 0 7.5 3.358 7.5 7.5s-3.358 7.5-7.5 7.5z" fill="#8bc727"/></g></g><g><g><g><path d="m112.852 255h-95.352c-5.523 0-10 4.477-10 10v35.968c0 5.523 4.477 10 10 10h95.352c2.897 0 5.652-1.256 7.551-3.444l15.614-17.984c3.265-3.761 3.265-9.351 0-13.112l-15.614-17.984c-1.899-2.188-4.654-3.444-7.551-3.444z" fill="#fedf30"/></g></g><g><path d="m136.017 276.428-6.935-7.988-16.179 18.635c-1.899 2.188-4.654 3.444-7.551 3.444h-97.852v10.45c0 5.523 4.477 10 10 10h95.352c2.897 0 5.652-1.256 7.551-3.444l15.614-17.984c3.265-3.762 3.265-9.352 0-13.113z" fill="#fed402"/></g><g><path d="m95 290.484h-53c-4.143 0-7.5-3.358-7.5-7.5s3.357-7.5 7.5-7.5h53c4.143 0 7.5 3.358 7.5 7.5s-3.357 7.5-7.5 7.5z" fill="#fff"/></g></g></g><g/><g/><g/><g/><g/><g/><g/><g/><g/><g/><g/><g/><g/><g/><g/></svg>